<svg width="20" height="20" viewBox="0 0 20 20" fill="none" xmlns="http://www.w3.org/2000/svg">
<path d="M3.72986 10.7812V10.785C3.7088 10.8644 3.67231 10.9389 3.62246 11.0041C3.57261 11.0694 3.51038 11.1242 3.43933 11.1654C3.36829 11.2067 3.28981 11.2335 3.2084 11.2443C3.12698 11.2552 3.04422 11.2499 2.96486 11.2287C2.42611 11.0862 2.52111 10.465 2.52111 10.465L2.54361 10.3875C2.54361 10.3875 2.57611 10.2825 2.60236 10.2063C2.92313 9.30686 3.39536 8.46895 3.99861 7.72875C5.11986 6.36125 7.00611 5 9.99986 5C12.9936 5 14.8799 6.36125 16.0024 7.72875C16.6056 8.46895 17.0778 9.30686 17.3986 10.2063C17.4255 10.2836 17.4505 10.3615 17.4736 10.44L17.4774 10.4562V10.4613L17.4786 10.4638C17.5183 10.6228 17.4938 10.7911 17.4105 10.9324C17.3273 11.0736 17.1918 11.1764 17.0334 11.2187C16.875 11.261 16.7064 11.2394 16.5638 11.1585C16.4212 11.0776 16.3161 10.9439 16.2711 10.7862L16.2699 10.7812L16.2599 10.75C16.189 10.5287 16.1055 10.3117 16.0099 10.1C15.7551 9.53347 15.4273 9.00272 15.0349 8.52125C14.1074 7.39 12.5549 6.25 9.99986 6.25C7.44486 6.25 5.89361 7.39 4.96486 8.52125C4.45548 9.14685 4.05605 9.85441 3.78361 10.6138C3.76816 10.6589 3.75358 10.7043 3.73986 10.75L3.72986 10.7812ZM9.99986 8.75C9.17105 8.75 8.3762 9.07924 7.79015 9.66529C7.2041 10.2513 6.87486 11.0462 6.87486 11.875C6.87486 12.7038 7.2041 13.4987 7.79015 14.0847C8.3762 14.6708 9.17105 15 9.99986 15C10.8287 15 11.6235 14.6708 12.2096 14.0847C12.7956 13.4987 13.1249 12.7038 13.1249 11.875C13.1249 11.0462 12.7956 10.2513 12.2096 9.66529C11.6235 9.07924 10.8287 8.75 9.99986 8.75ZM8.12486 11.875C8.12486 11.3777 8.3224 10.9008 8.67403 10.5492C9.02566 10.1975 9.50258 10 9.99986 10C10.4971 10 10.9741 10.1975 11.3257 10.5492C11.6773 10.9008 11.8749 11.3777 11.8749 11.875C11.8749 12.3723 11.6773 12.8492 11.3257 13.2008C10.9741 13.5525 10.4971 13.75 9.99986 13.75C9.50258 13.75 9.02566 13.5525 8.67403 13.2008C8.3224 12.8492 8.12486 12.3723 8.12486 11.875Z" fill="#485BC0"/>
</svg>
